<mxfile host="65bd71144e" pages="3">
    <diagram name="Use-case diagram" id="jBow_mNzCGN9uOBBYrtV">
        <mxGraphModel dx="897" dy="667" grid="1" gridSize="10" guides="1" tooltips="1" connect="1" arrows="1" fold="1" page="1" pageScale="1" pageWidth="850" pageHeight="1100" math="0" shadow="0">
            <root>
                <mxCell id="0"/>
                <mxCell id="1" parent="0"/>
                <mxCell id="U5rSeef03LjWIlhZXqFB-2" value="" style="rounded=0;whiteSpace=wrap;html=1;" parent="1" vertex="1">
                    <mxGeometry x="140" y="50" width="670" height="600" as="geometry"/>
                </mxCell>
                <mxCell id="U5rSeef03LjWIlhZXqFB-25" style="rounded=0;orthogonalLoop=1;jettySize=auto;html=1;entryX=0.005;entryY=0.446;entryDx=0;entryDy=0;entryPerimeter=0;" parent="1" source="U5rSeef03LjWIlhZXqFB-1" target="U5rSeef03LjWIlhZXqFB-24" edge="1">
                    <mxGeometry relative="1" as="geometry"/>
                </mxCell>
                <mxCell id="U5rSeef03LjWIlhZXqFB-1" value="User" style="shape=umlActor;verticalLabelPosition=bottom;verticalAlign=top;html=1;outlineConnect=0;" parent="1" vertex="1">
                    <mxGeometry x="40" y="290" width="30" height="60" as="geometry"/>
                </mxCell>
                <mxCell id="U5rSeef03LjWIlhZXqFB-23" value="" style="rounded=0;whiteSpace=wrap;html=1;dashed=1;" parent="1" vertex="1">
                    <mxGeometry x="220" y="150" width="340" height="260" as="geometry"/>
                </mxCell>
                <mxCell id="U5rSeef03LjWIlhZXqFB-3" value="Create FoodItem" style="ellipse;whiteSpace=wrap;html=1;" parent="1" vertex="1">
                    <mxGeometry x="245" y="170" width="120" height="80" as="geometry"/>
                </mxCell>
                <mxCell id="U5rSeef03LjWIlhZXqFB-6" style="rounded=0;orthogonalLoop=1;jettySize=auto;html=1;entryX=0.002;entryY=0.556;entryDx=0;entryDy=0;entryPerimeter=0;" parent="1" source="U5rSeef03LjWIlhZXqFB-1" target="U5rSeef03LjWIlhZXqFB-23" edge="1">
                    <mxGeometry relative="1" as="geometry"/>
                </mxCell>
                <mxCell id="U5rSeef03LjWIlhZXqFB-10" value="Delete FoodItem" style="ellipse;whiteSpace=wrap;html=1;" parent="1" vertex="1">
                    <mxGeometry x="435" y="300" width="120" height="80" as="geometry"/>
                </mxCell>
                <mxCell id="U5rSeef03LjWIlhZXqFB-19" value="Read FoodItem" style="ellipse;whiteSpace=wrap;html=1;" parent="1" vertex="1">
                    <mxGeometry x="395" y="190" width="120" height="80" as="geometry"/>
                </mxCell>
                <mxCell id="IylNz-2hLhkDslfBnV60-1" style="rounded=0;orthogonalLoop=1;jettySize=auto;html=1;endArrow=block;endFill=0;" parent="1" source="U5rSeef03LjWIlhZXqFB-21" target="U5rSeef03LjWIlhZXqFB-3" edge="1">
                    <mxGeometry relative="1" as="geometry"/>
                </mxCell>
                <mxCell id="IylNz-2hLhkDslfBnV60-3" value="&amp;lt;includes&amp;gt;" style="edgeLabel;html=1;align=center;verticalAlign=middle;resizable=0;points=[];" parent="IylNz-2hLhkDslfBnV60-1" vertex="1" connectable="0">
                    <mxGeometry x="-0.2067" y="-1" relative="1" as="geometry">
                        <mxPoint as="offset"/>
                    </mxGeometry>
                </mxCell>
                <mxCell id="IylNz-2hLhkDslfBnV60-2" style="rounded=0;orthogonalLoop=1;jettySize=auto;html=1;endArrow=block;endFill=0;" parent="1" source="U5rSeef03LjWIlhZXqFB-21" target="U5rSeef03LjWIlhZXqFB-10" edge="1">
                    <mxGeometry relative="1" as="geometry"/>
                </mxCell>
                <mxCell id="IylNz-2hLhkDslfBnV60-4" value="&amp;lt;includes&amp;gt;" style="edgeLabel;html=1;align=center;verticalAlign=middle;resizable=0;points=[];" parent="IylNz-2hLhkDslfBnV60-2" vertex="1" connectable="0">
                    <mxGeometry x="-0.4821" y="1" relative="1" as="geometry">
                        <mxPoint x="13" y="5" as="offset"/>
                    </mxGeometry>
                </mxCell>
                <mxCell id="U5rSeef03LjWIlhZXqFB-21" value="Update FoodItem" style="ellipse;whiteSpace=wrap;html=1;" parent="1" vertex="1">
                    <mxGeometry x="240" y="310" width="120" height="80" as="geometry"/>
                </mxCell>
                <mxCell id="U5rSeef03LjWIlhZXqFB-24" value="" style="rounded=0;whiteSpace=wrap;html=1;dashed=1;" parent="1" vertex="1">
                    <mxGeometry x="240" y="420" width="290" height="210" as="geometry"/>
                </mxCell>
                <mxCell id="U5rSeef03LjWIlhZXqFB-4" value="Read Macro Goals" style="ellipse;whiteSpace=wrap;html=1;" parent="1" vertex="1">
                    <mxGeometry x="387.5" y="435" width="120" height="80" as="geometry"/>
                </mxCell>
                <mxCell id="U5rSeef03LjWIlhZXqFB-5" value="Create Macro Goals" style="ellipse;whiteSpace=wrap;html=1;" parent="1" vertex="1">
                    <mxGeometry x="262.5" y="435" width="120" height="80" as="geometry"/>
                </mxCell>
                <mxCell id="U5rSeef03LjWIlhZXqFB-20" value="Update Macro Goals" style="ellipse;whiteSpace=wrap;html=1;" parent="1" vertex="1">
                    <mxGeometry x="332.5" y="535" width="120" height="80" as="geometry"/>
                </mxCell>
                <mxCell id="U5rSeef03LjWIlhZXqFB-28" value="&lt;font style=&quot;font-size: 42px;&quot;&gt;&lt;b&gt;MacroMate&lt;/b&gt;&lt;/font&gt;" style="text;html=1;align=center;verticalAlign=middle;whiteSpace=wrap;rounded=0;" parent="1" vertex="1">
                    <mxGeometry x="230" y="30" width="310" height="160" as="geometry"/>
                </mxCell>
                <mxCell id="U5rSeef03LjWIlhZXqFB-29" value="" style="rounded=0;whiteSpace=wrap;html=1;" parent="1" vertex="1">
                    <mxGeometry x="140" y="720" width="440" height="410" as="geometry"/>
                </mxCell>
                <mxCell id="U5rSeef03LjWIlhZXqFB-30" value="&lt;font style=&quot;font-size: 42px;&quot;&gt;&lt;b&gt;Future Release&lt;/b&gt;&lt;/font&gt;" style="text;html=1;align=center;verticalAlign=middle;whiteSpace=wrap;rounded=0;" parent="1" vertex="1">
                    <mxGeometry x="205" y="690" width="310" height="160" as="geometry"/>
                </mxCell>
                <mxCell id="U5rSeef03LjWIlhZXqFB-33" value="User Authentication" style="ellipse;whiteSpace=wrap;html=1;" parent="1" vertex="1">
                    <mxGeometry x="220" y="830" width="120" height="80" as="geometry"/>
                </mxCell>
                <mxCell id="U5rSeef03LjWIlhZXqFB-34" value="Template Manager" style="ellipse;whiteSpace=wrap;html=1;" parent="1" vertex="1">
                    <mxGeometry x="365" y="830" width="120" height="80" as="geometry"/>
                </mxCell>
                <mxCell id="xqedrYDBCNj9wpR1KkHt-1" value="Food Scanning (barcode)" style="ellipse;whiteSpace=wrap;html=1;" parent="1" vertex="1">
                    <mxGeometry x="220" y="930" width="120" height="80" as="geometry"/>
                </mxCell>
                <mxCell id="xqedrYDBCNj9wpR1KkHt-2" value="Photo Logging (AI predictions)" style="ellipse;whiteSpace=wrap;html=1;" parent="1" vertex="1">
                    <mxGeometry x="365" y="930" width="120" height="80" as="geometry"/>
                </mxCell>
                <mxCell id="5pbFNkUTdyOQCOuKdF-y-1" value="Body Measurments" style="ellipse;whiteSpace=wrap;html=1;" parent="1" vertex="1">
                    <mxGeometry x="220" y="1030" width="120" height="80" as="geometry"/>
                </mxCell>
                <mxCell id="1WmLyUkmRnaLj7cnnRX_-2" style="rounded=0;orthogonalLoop=1;jettySize=auto;html=1;endArrow=block;endFill=0;" parent="1" source="U5rSeef03LjWIlhZXqFB-10" target="1WmLyUkmRnaLj7cnnRX_-1" edge="1">
                    <mxGeometry relative="1" as="geometry"/>
                </mxCell>
                <mxCell id="1WmLyUkmRnaLj7cnnRX_-5" value="&amp;lt;includes&amp;gt;" style="edgeLabel;html=1;align=center;verticalAlign=middle;resizable=0;points=[];" parent="1WmLyUkmRnaLj7cnnRX_-2" vertex="1" connectable="0">
                    <mxGeometry x="-0.0704" y="1" relative="1" as="geometry">
                        <mxPoint x="-2" y="5" as="offset"/>
                    </mxGeometry>
                </mxCell>
                <mxCell id="1WmLyUkmRnaLj7cnnRX_-3" style="rounded=0;orthogonalLoop=1;jettySize=auto;html=1;endArrow=block;endFill=0;" parent="1" source="U5rSeef03LjWIlhZXqFB-19" target="1WmLyUkmRnaLj7cnnRX_-1" edge="1">
                    <mxGeometry relative="1" as="geometry"/>
                </mxCell>
                <mxCell id="1WmLyUkmRnaLj7cnnRX_-4" value="&amp;lt;includes&amp;gt;" style="edgeLabel;html=1;align=center;verticalAlign=middle;resizable=0;points=[];" parent="1WmLyUkmRnaLj7cnnRX_-3" vertex="1" connectable="0">
                    <mxGeometry x="-0.3131" y="3" relative="1" as="geometry">
                        <mxPoint x="28" y="7" as="offset"/>
                    </mxGeometry>
                </mxCell>
                <mxCell id="1WmLyUkmRnaLj7cnnRX_-1" value="Query Database" style="ellipse;whiteSpace=wrap;html=1;" parent="1" vertex="1">
                    <mxGeometry x="680" y="230" width="120" height="80" as="geometry"/>
                </mxCell>
            </root>
        </mxGraphModel>
    </diagram>
    <diagram id="gr8Y483bi6J3H4xXprHQ" name="Activity Diagrams">
        <mxGraphModel dx="1943" dy="1143" grid="1" gridSize="10" guides="1" tooltips="1" connect="1" arrows="1" fold="1" page="1" pageScale="1" pageWidth="850" pageHeight="1100" math="0" shadow="0">
            <root>
                <mxCell id="0"/>
                <mxCell id="1" parent="0"/>
                <mxCell id="S19IM_V1eHa90hU74MjL-1" value="&lt;font style=&quot;font-size: 32px;&quot;&gt;Create FoodItem&lt;/font&gt;" style="text;html=1;align=center;verticalAlign=middle;whiteSpace=wrap;rounded=0;" vertex="1" parent="1">
                    <mxGeometry x="80" y="50" width="180" height="40" as="geometry"/>
                </mxCell>
                <mxCell id="YhLAo5q16ZlPgTLbm7TN-5" style="edgeStyle=orthogonalEdgeStyle;rounded=0;orthogonalLoop=1;jettySize=auto;html=1;" edge="1" parent="1" source="YhLAo5q16ZlPgTLbm7TN-2" target="YhLAo5q16ZlPgTLbm7TN-4">
                    <mxGeometry relative="1" as="geometry"/>
                </mxCell>
                <mxCell id="YhLAo5q16ZlPgTLbm7TN-2" value="" style="ellipse;" vertex="1" parent="1">
                    <mxGeometry x="150" y="130" width="30" height="30" as="geometry"/>
                </mxCell>
                <mxCell id="YhLAo5q16ZlPgTLbm7TN-3" value="" style="ellipse;html=1;shape=endState;fillColor=strokeColor;" vertex="1" parent="1">
                    <mxGeometry x="150" y="500" width="30" height="30" as="geometry"/>
                </mxCell>
                <mxCell id="YhLAo5q16ZlPgTLbm7TN-7" style="edgeStyle=orthogonalEdgeStyle;rounded=0;orthogonalLoop=1;jettySize=auto;html=1;" edge="1" parent="1" source="YhLAo5q16ZlPgTLbm7TN-4" target="YhLAo5q16ZlPgTLbm7TN-6">
                    <mxGeometry relative="1" as="geometry"/>
                </mxCell>
                <mxCell id="YhLAo5q16ZlPgTLbm7TN-4" value="Input name, calories, protein, fat, carbs, date" style="rounded=1;whiteSpace=wrap;html=1;" vertex="1" parent="1">
                    <mxGeometry x="113.75" y="210" width="102.5" height="50" as="geometry"/>
                </mxCell>
                <mxCell id="YhLAo5q16ZlPgTLbm7TN-8" style="edgeStyle=orthogonalEdgeStyle;rounded=0;orthogonalLoop=1;jettySize=auto;html=1;entryX=0;entryY=0.5;entryDx=0;entryDy=0;" edge="1" parent="1" source="YhLAo5q16ZlPgTLbm7TN-6" target="YhLAo5q16ZlPgTLbm7TN-4">
                    <mxGeometry relative="1" as="geometry">
                        <Array as="points">
                            <mxPoint x="94" y="315"/>
                            <mxPoint x="94" y="235"/>
                        </Array>
                    </mxGeometry>
                </mxCell>
                <mxCell id="YhLAo5q16ZlPgTLbm7TN-9" value="invalid" style="edgeLabel;html=1;align=center;verticalAlign=middle;resizable=0;points=[];" vertex="1" connectable="0" parent="YhLAo5q16ZlPgTLbm7TN-8">
                    <mxGeometry x="-0.5157" y="-1" relative="1" as="geometry">
                        <mxPoint x="8" y="1" as="offset"/>
                    </mxGeometry>
                </mxCell>
                <mxCell id="YhLAo5q16ZlPgTLbm7TN-11" style="edgeStyle=orthogonalEdgeStyle;rounded=0;orthogonalLoop=1;jettySize=auto;html=1;" edge="1" parent="1" source="YhLAo5q16ZlPgTLbm7TN-6" target="YhLAo5q16ZlPgTLbm7TN-10">
                    <mxGeometry relative="1" as="geometry"/>
                </mxCell>
                <mxCell id="YhLAo5q16ZlPgTLbm7TN-13" value="valid" style="edgeLabel;html=1;align=center;verticalAlign=middle;resizable=0;points=[];" vertex="1" connectable="0" parent="YhLAo5q16ZlPgTLbm7TN-11">
                    <mxGeometry x="-0.2145" y="1" relative="1" as="geometry">
                        <mxPoint x="-1" as="offset"/>
                    </mxGeometry>
                </mxCell>
                <mxCell id="YhLAo5q16ZlPgTLbm7TN-6" value="" style="rhombus;whiteSpace=wrap;html=1;" vertex="1" parent="1">
                    <mxGeometry x="150" y="300" width="30" height="30" as="geometry"/>
                </mxCell>
                <mxCell id="YhLAo5q16ZlPgTLbm7TN-12" style="edgeStyle=orthogonalEdgeStyle;rounded=0;orthogonalLoop=1;jettySize=auto;html=1;" edge="1" parent="1" source="YhLAo5q16ZlPgTLbm7TN-10" target="YhLAo5q16ZlPgTLbm7TN-3">
                    <mxGeometry relative="1" as="geometry"/>
                </mxCell>
                <mxCell id="YhLAo5q16ZlPgTLbm7TN-10" value="Save in Database" style="rounded=1;whiteSpace=wrap;html=1;" vertex="1" parent="1">
                    <mxGeometry x="105" y="370" width="120" height="60" as="geometry"/>
                </mxCell>
                <mxCell id="s4U3M31BNokX08P3aMhR-1" value="&lt;font style=&quot;font-size: 32px;&quot;&gt;Read FoodItem&lt;/font&gt;" style="text;html=1;align=center;verticalAlign=middle;whiteSpace=wrap;rounded=0;" vertex="1" parent="1">
                    <mxGeometry x="335" y="50" width="180" height="40" as="geometry"/>
                </mxCell>
                <mxCell id="s4U3M31BNokX08P3aMhR-5" style="edgeStyle=orthogonalEdgeStyle;rounded=0;orthogonalLoop=1;jettySize=auto;html=1;" edge="1" parent="1" source="s4U3M31BNokX08P3aMhR-2" target="s4U3M31BNokX08P3aMhR-4">
                    <mxGeometry relative="1" as="geometry"/>
                </mxCell>
                <mxCell id="s4U3M31BNokX08P3aMhR-2" value="" style="ellipse;" vertex="1" parent="1">
                    <mxGeometry x="410.25" y="130" width="30" height="30" as="geometry"/>
                </mxCell>
                <mxCell id="s4U3M31BNokX08P3aMhR-3" value="" style="ellipse;html=1;shape=endState;fillColor=strokeColor;" vertex="1" parent="1">
                    <mxGeometry x="410.25" y="520" width="30" height="30" as="geometry"/>
                </mxCell>
                <mxCell id="s4U3M31BNokX08P3aMhR-10" style="edgeStyle=orthogonalEdgeStyle;rounded=0;orthogonalLoop=1;jettySize=auto;html=1;" edge="1" parent="1" source="s4U3M31BNokX08P3aMhR-4" target="s4U3M31BNokX08P3aMhR-6">
                    <mxGeometry relative="1" as="geometry"/>
                </mxCell>
                <mxCell id="s4U3M31BNokX08P3aMhR-4" value="Get foodItem ID" style="rounded=1;whiteSpace=wrap;html=1;" vertex="1" parent="1">
                    <mxGeometry x="374" y="210" width="102.5" height="50" as="geometry"/>
                </mxCell>
                <mxCell id="s4U3M31BNokX08P3aMhR-11" style="edgeStyle=orthogonalEdgeStyle;rounded=0;orthogonalLoop=1;jettySize=auto;html=1;" edge="1" parent="1" source="s4U3M31BNokX08P3aMhR-6" target="W6EAIy1qEaVdQvwEI4xQ-15">
                    <mxGeometry relative="1" as="geometry">
                        <mxPoint x="425" y="385" as="targetPoint"/>
                    </mxGeometry>
                </mxCell>
                <mxCell id="s4U3M31BNokX08P3aMhR-6" value="Query Database" style="rounded=1;whiteSpace=wrap;html=1;" vertex="1" parent="1">
                    <mxGeometry x="374" y="300" width="102.5" height="50" as="geometry"/>
                </mxCell>
                <mxCell id="udlB4M8ms071vq05Iu0C-1" value="&lt;font style=&quot;font-size: 32px;&quot;&gt;Update FoodItem&lt;/font&gt;" style="text;html=1;align=center;verticalAlign=middle;whiteSpace=wrap;rounded=0;" vertex="1" parent="1">
                    <mxGeometry x="590" y="50" width="200" height="40" as="geometry"/>
                </mxCell>
                <mxCell id="ILlx6pyAgeF3UlyOSPJ3-7" style="edgeStyle=orthogonalEdgeStyle;rounded=0;orthogonalLoop=1;jettySize=auto;html=1;" edge="1" parent="1" source="ILlx6pyAgeF3UlyOSPJ3-1" target="ILlx6pyAgeF3UlyOSPJ3-6">
                    <mxGeometry relative="1" as="geometry"/>
                </mxCell>
                <mxCell id="ILlx6pyAgeF3UlyOSPJ3-1" value="Create FoodItem" style="rounded=1;whiteSpace=wrap;html=1;" vertex="1" parent="1">
                    <mxGeometry x="638.75" y="210" width="102.5" height="50" as="geometry"/>
                </mxCell>
                <mxCell id="ILlx6pyAgeF3UlyOSPJ3-5" style="edgeStyle=orthogonalEdgeStyle;rounded=0;orthogonalLoop=1;jettySize=auto;html=1;" edge="1" parent="1" source="ILlx6pyAgeF3UlyOSPJ3-2" target="ILlx6pyAgeF3UlyOSPJ3-1">
                    <mxGeometry relative="1" as="geometry"/>
                </mxCell>
                <mxCell id="ILlx6pyAgeF3UlyOSPJ3-2" value="" style="ellipse;" vertex="1" parent="1">
                    <mxGeometry x="675" y="130" width="30" height="30" as="geometry"/>
                </mxCell>
                <mxCell id="ILlx6pyAgeF3UlyOSPJ3-9" style="edgeStyle=orthogonalEdgeStyle;rounded=0;orthogonalLoop=1;jettySize=auto;html=1;" edge="1" parent="1" source="ILlx6pyAgeF3UlyOSPJ3-6" target="ILlx6pyAgeF3UlyOSPJ3-8">
                    <mxGeometry relative="1" as="geometry"/>
                </mxCell>
                <mxCell id="ILlx6pyAgeF3UlyOSPJ3-6" value="Delete Food Item" style="rounded=1;whiteSpace=wrap;html=1;" vertex="1" parent="1">
                    <mxGeometry x="638.75" y="330" width="102.5" height="50" as="geometry"/>
                </mxCell>
                <mxCell id="ILlx6pyAgeF3UlyOSPJ3-8" value="" style="ellipse;html=1;shape=endState;fillColor=strokeColor;" vertex="1" parent="1">
                    <mxGeometry x="675" y="450" width="30" height="30" as="geometry"/>
                </mxCell>
                <mxCell id="yHVP0BCAqlKV8w2IZp7O-1" value="&lt;font style=&quot;font-size: 32px;&quot;&gt;Delete FoodItem&lt;/font&gt;" style="text;html=1;align=center;verticalAlign=middle;whiteSpace=wrap;rounded=0;" vertex="1" parent="1">
                    <mxGeometry x="810" y="50" width="200" height="40" as="geometry"/>
                </mxCell>
                <mxCell id="yHVP0BCAqlKV8w2IZp7O-2" style="edgeStyle=orthogonalEdgeStyle;rounded=0;orthogonalLoop=1;jettySize=auto;html=1;" edge="1" parent="1" source="yHVP0BCAqlKV8w2IZp7O-3" target="yHVP0BCAqlKV8w2IZp7O-11">
                    <mxGeometry relative="1" as="geometry">
                        <mxPoint x="910" y="330" as="targetPoint"/>
                    </mxGeometry>
                </mxCell>
                <mxCell id="yHVP0BCAqlKV8w2IZp7O-3" value="Get foodItem ID" style="rounded=1;whiteSpace=wrap;html=1;" vertex="1" parent="1">
                    <mxGeometry x="864" y="210" width="102.5" height="50" as="geometry"/>
                </mxCell>
                <mxCell id="yHVP0BCAqlKV8w2IZp7O-4" style="edgeStyle=orthogonalEdgeStyle;rounded=0;orthogonalLoop=1;jettySize=auto;html=1;" edge="1" parent="1" source="yHVP0BCAqlKV8w2IZp7O-5" target="yHVP0BCAqlKV8w2IZp7O-3">
                    <mxGeometry relative="1" as="geometry"/>
                </mxCell>
                <mxCell id="yHVP0BCAqlKV8w2IZp7O-5" value="" style="ellipse;" vertex="1" parent="1">
                    <mxGeometry x="900.25" y="130" width="30" height="30" as="geometry"/>
                </mxCell>
                <mxCell id="yHVP0BCAqlKV8w2IZp7O-8" value="" style="ellipse;html=1;shape=endState;fillColor=strokeColor;" vertex="1" parent="1">
                    <mxGeometry x="900.25" y="450" width="30" height="30" as="geometry"/>
                </mxCell>
                <mxCell id="yHVP0BCAqlKV8w2IZp7O-10" style="edgeStyle=orthogonalEdgeStyle;rounded=0;orthogonalLoop=1;jettySize=auto;html=1;" edge="1" parent="1" source="yHVP0BCAqlKV8w2IZp7O-11" target="yHVP0BCAqlKV8w2IZp7O-8">
                    <mxGeometry relative="1" as="geometry">
                        <mxPoint x="914.9999999999995" y="425" as="targetPoint"/>
                    </mxGeometry>
                </mxCell>
                <mxCell id="yHVP0BCAqlKV8w2IZp7O-11" value="Query Database" style="rounded=1;whiteSpace=wrap;html=1;" vertex="1" parent="1">
                    <mxGeometry x="864" y="340" width="102.5" height="50" as="geometry"/>
                </mxCell>
                <mxCell id="W6EAIy1qEaVdQvwEI4xQ-2" value="&lt;font style=&quot;font-size: 32px;&quot;&gt;Query&lt;/font&gt;&lt;div&gt;&lt;font style=&quot;font-size: 32px;&quot;&gt;Database&lt;/font&gt;&lt;/div&gt;" style="text;html=1;align=center;verticalAlign=middle;whiteSpace=wrap;rounded=0;" vertex="1" parent="1">
                    <mxGeometry x="1130" y="50" width="200" height="40" as="geometry"/>
                </mxCell>
                <mxCell id="W6EAIy1qEaVdQvwEI4xQ-3" style="edgeStyle=orthogonalEdgeStyle;rounded=0;orthogonalLoop=1;jettySize=auto;html=1;" edge="1" parent="1" source="W6EAIy1qEaVdQvwEI4xQ-4" target="W6EAIy1qEaVdQvwEI4xQ-9">
                    <mxGeometry relative="1" as="geometry"/>
                </mxCell>
                <mxCell id="W6EAIy1qEaVdQvwEI4xQ-4" value="Query Database" style="rounded=1;whiteSpace=wrap;html=1;" vertex="1" parent="1">
                    <mxGeometry x="1172.75" y="160" width="102.5" height="50" as="geometry"/>
                </mxCell>
                <mxCell id="W6EAIy1qEaVdQvwEI4xQ-5" style="edgeStyle=orthogonalEdgeStyle;rounded=0;orthogonalLoop=1;jettySize=auto;html=1;" edge="1" parent="1" source="W6EAIy1qEaVdQvwEI4xQ-9" target="W6EAIy1qEaVdQvwEI4xQ-10">
                    <mxGeometry relative="1" as="geometry">
                        <Array as="points">
                            <mxPoint x="1148.75" y="260"/>
                        </Array>
                    </mxGeometry>
                </mxCell>
                <mxCell id="W6EAIy1qEaVdQvwEI4xQ-6" value="Success" style="edgeLabel;html=1;align=center;verticalAlign=middle;resizable=0;points=[];" vertex="1" connectable="0" parent="W6EAIy1qEaVdQvwEI4xQ-5">
                    <mxGeometry x="-0.4816" y="-1" relative="1" as="geometry">
                        <mxPoint as="offset"/>
                    </mxGeometry>
                </mxCell>
                <mxCell id="W6EAIy1qEaVdQvwEI4xQ-7" style="edgeStyle=orthogonalEdgeStyle;rounded=0;orthogonalLoop=1;jettySize=auto;html=1;" edge="1" parent="1" source="W6EAIy1qEaVdQvwEI4xQ-9" target="W6EAIy1qEaVdQvwEI4xQ-11">
                    <mxGeometry relative="1" as="geometry"/>
                </mxCell>
                <mxCell id="W6EAIy1qEaVdQvwEI4xQ-8" value="Not Found" style="edgeLabel;html=1;align=center;verticalAlign=middle;resizable=0;points=[];" vertex="1" connectable="0" parent="W6EAIy1qEaVdQvwEI4xQ-7">
                    <mxGeometry x="-0.5514" y="2" relative="1" as="geometry">
                        <mxPoint x="9" y="2" as="offset"/>
                    </mxGeometry>
                </mxCell>
                <mxCell id="W6EAIy1qEaVdQvwEI4xQ-9" value="" style="rhombus;whiteSpace=wrap;html=1;" vertex="1" parent="1">
                    <mxGeometry x="1208.75" y="245" width="30" height="30" as="geometry"/>
                </mxCell>
                <mxCell id="W6EAIy1qEaVdQvwEI4xQ-10" value="Return Item" style="rounded=1;whiteSpace=wrap;html=1;" vertex="1" parent="1">
                    <mxGeometry x="1098.75" y="310" width="102.5" height="50" as="geometry"/>
                </mxCell>
                <mxCell id="W6EAIy1qEaVdQvwEI4xQ-11" value="ItemNotFound Message" style="rounded=1;whiteSpace=wrap;html=1;" vertex="1" parent="1">
                    <mxGeometry x="1258.75" y="310" width="102.5" height="50" as="geometry"/>
                </mxCell>
                <mxCell id="W6EAIy1qEaVdQvwEI4xQ-12" style="edgeStyle=orthogonalEdgeStyle;rounded=0;orthogonalLoop=1;jettySize=auto;html=1;" edge="1" parent="1" source="W6EAIy1qEaVdQvwEI4xQ-11" target="W6EAIy1qEaVdQvwEI4xQ-14">
                    <mxGeometry relative="1" as="geometry">
                        <Array as="points">
                            <mxPoint x="1309.75" y="415"/>
                        </Array>
                    </mxGeometry>
                </mxCell>
                <mxCell id="W6EAIy1qEaVdQvwEI4xQ-13" style="edgeStyle=orthogonalEdgeStyle;rounded=0;orthogonalLoop=1;jettySize=auto;html=1;" edge="1" parent="1" source="W6EAIy1qEaVdQvwEI4xQ-10" target="W6EAIy1qEaVdQvwEI4xQ-14">
                    <mxGeometry relative="1" as="geometry">
                        <Array as="points">
                            <mxPoint x="1148.75" y="415"/>
                        </Array>
                    </mxGeometry>
                </mxCell>
                <mxCell id="SifYlrV6O5T63yi4FXTl-2" style="edgeStyle=orthogonalEdgeStyle;rounded=0;orthogonalLoop=1;jettySize=auto;html=1;" edge="1" parent="1" source="W6EAIy1qEaVdQvwEI4xQ-14" target="SifYlrV6O5T63yi4FXTl-1">
                    <mxGeometry relative="1" as="geometry"/>
                </mxCell>
                <mxCell id="W6EAIy1qEaVdQvwEI4xQ-14" value="" style="rhombus;whiteSpace=wrap;html=1;" vertex="1" parent="1">
                    <mxGeometry x="1209" y="400" width="30" height="30" as="geometry"/>
                </mxCell>
                <mxCell id="W6EAIy1qEaVdQvwEI4xQ-16" style="edgeStyle=orthogonalEdgeStyle;rounded=0;orthogonalLoop=1;jettySize=auto;html=1;" edge="1" parent="1" source="W6EAIy1qEaVdQvwEI4xQ-15" target="s4U3M31BNokX08P3aMhR-3">
                    <mxGeometry relative="1" as="geometry"/>
                </mxCell>
                <mxCell id="W6EAIy1qEaVdQvwEI4xQ-15" value="Display Results" style="rounded=1;whiteSpace=wrap;html=1;" vertex="1" parent="1">
                    <mxGeometry x="374" y="410" width="102.5" height="50" as="geometry"/>
                </mxCell>
                <mxCell id="SifYlrV6O5T63yi4FXTl-1" value="" style="ellipse;html=1;shape=endState;fillColor=strokeColor;" vertex="1" parent="1">
                    <mxGeometry x="1209" y="480" width="30" height="30" as="geometry"/>
                </mxCell>
            </root>
        </mxGraphModel>
    </diagram>
    <diagram id="_DGp-XIO5CFrDi0shttd" name="Class Diagram">
        <mxGraphModel dx="1339" dy="667" grid="1" gridSize="10" guides="1" tooltips="1" connect="1" arrows="1" fold="1" page="1" pageScale="1" pageWidth="850" pageHeight="1100" math="0" shadow="0">
            <root>
                <mxCell id="0"/>
                <mxCell id="1" parent="0"/>
                <mxCell id="TdGKnOu7zhTbfg-XOS5--1" value="FoodItem" style="swimlane;fontStyle=1;align=center;verticalAlign=top;childLayout=stackLayout;horizontal=1;startSize=26;horizontalStack=0;resizeParent=1;resizeParentMax=0;resizeLast=0;collapsible=1;marginBottom=0;whiteSpace=wrap;html=1;" parent="1" vertex="1">
                    <mxGeometry x="290" y="210" width="160" height="346" as="geometry">
                        <mxRectangle x="345" y="370" width="90" height="30" as="alternateBounds"/>
                    </mxGeometry>
                </mxCell>
                <mxCell id="CUE0NcxN2NASc_azKSRP-3" value="-name: string" style="text;strokeColor=none;fillColor=none;align=left;verticalAlign=top;spacingLeft=4;spacingRight=4;overflow=hidden;rotatable=0;points=[[0,0.5],[1,0.5]];portConstraint=eastwest;whiteSpace=wrap;html=1;" parent="TdGKnOu7zhTbfg-XOS5--1" vertex="1">
                    <mxGeometry y="26" width="160" height="26" as="geometry"/>
                </mxCell>
                <mxCell id="8p43mTHeLQMd4w5aZVqD-2" value="-carbs: float" style="text;strokeColor=none;fillColor=none;align=left;verticalAlign=top;spacingLeft=4;spacingRight=4;overflow=hidden;rotatable=0;points=[[0,0.5],[1,0.5]];portConstraint=eastwest;whiteSpace=wrap;html=1;" vertex="1" parent="TdGKnOu7zhTbfg-XOS5--1">
                    <mxGeometry y="52" width="160" height="26" as="geometry"/>
                </mxCell>
                <mxCell id="CUE0NcxN2NASc_azKSRP-1" value="-protein: float" style="text;strokeColor=none;fillColor=none;align=left;verticalAlign=top;spacingLeft=4;spacingRight=4;overflow=hidden;rotatable=0;points=[[0,0.5],[1,0.5]];portConstraint=eastwest;whiteSpace=wrap;html=1;" parent="TdGKnOu7zhTbfg-XOS5--1" vertex="1">
                    <mxGeometry y="78" width="160" height="26" as="geometry"/>
                </mxCell>
                <mxCell id="CUE0NcxN2NASc_azKSRP-4" value="-fats: float" style="text;strokeColor=none;fillColor=none;align=left;verticalAlign=top;spacingLeft=4;spacingRight=4;overflow=hidden;rotatable=0;points=[[0,0.5],[1,0.5]];portConstraint=eastwest;whiteSpace=wrap;html=1;" parent="TdGKnOu7zhTbfg-XOS5--1" vertex="1">
                    <mxGeometry y="104" width="160" height="26" as="geometry"/>
                </mxCell>
                <mxCell id="CUE0NcxN2NASc_azKSRP-5" value="-date: Date" style="text;strokeColor=none;fillColor=none;align=left;verticalAlign=top;spacingLeft=4;spacingRight=4;overflow=hidden;rotatable=0;points=[[0,0.5],[1,0.5]];portConstraint=eastwest;whiteSpace=wrap;html=1;" parent="TdGKnOu7zhTbfg-XOS5--1" vertex="1">
                    <mxGeometry y="130" width="160" height="26" as="geometry"/>
                </mxCell>
                <mxCell id="TdGKnOu7zhTbfg-XOS5--2" value="/Name: string" style="text;strokeColor=none;fillColor=none;align=left;verticalAlign=top;spacingLeft=4;spacingRight=4;overflow=hidden;rotatable=0;points=[[0,0.5],[1,0.5]];portConstraint=eastwest;whiteSpace=wrap;html=1;" parent="TdGKnOu7zhTbfg-XOS5--1" vertex="1">
                    <mxGeometry y="156" width="160" height="26" as="geometry"/>
                </mxCell>
                <mxCell id="TdGKnOu7zhTbfg-XOS5--5" value="/Carbs: float" style="text;strokeColor=none;fillColor=none;align=left;verticalAlign=top;spacingLeft=4;spacingRight=4;overflow=hidden;rotatable=0;points=[[0,0.5],[1,0.5]];portConstraint=eastwest;whiteSpace=wrap;html=1;" parent="TdGKnOu7zhTbfg-XOS5--1" vertex="1">
                    <mxGeometry y="182" width="160" height="26" as="geometry"/>
                </mxCell>
                <mxCell id="TdGKnOu7zhTbfg-XOS5--6" value="/Proteins: float" style="text;strokeColor=none;fillColor=none;align=left;verticalAlign=top;spacingLeft=4;spacingRight=4;overflow=hidden;rotatable=0;points=[[0,0.5],[1,0.5]];portConstraint=eastwest;whiteSpace=wrap;html=1;" parent="TdGKnOu7zhTbfg-XOS5--1" vertex="1">
                    <mxGeometry y="208" width="160" height="26" as="geometry"/>
                </mxCell>
                <mxCell id="TdGKnOu7zhTbfg-XOS5--7" value="/Fats: float" style="text;strokeColor=none;fillColor=none;align=left;verticalAlign=top;spacingLeft=4;spacingRight=4;overflow=hidden;rotatable=0;points=[[0,0.5],[1,0.5]];portConstraint=eastwest;whiteSpace=wrap;html=1;" parent="TdGKnOu7zhTbfg-XOS5--1" vertex="1">
                    <mxGeometry y="234" width="160" height="26" as="geometry"/>
                </mxCell>
                <mxCell id="TdGKnOu7zhTbfg-XOS5--8" value="/Date: Date = Today()" style="text;strokeColor=none;fillColor=none;align=left;verticalAlign=top;spacingLeft=4;spacingRight=4;overflow=hidden;rotatable=0;points=[[0,0.5],[1,0.5]];portConstraint=eastwest;whiteSpace=wrap;html=1;" parent="TdGKnOu7zhTbfg-XOS5--1" vertex="1">
                    <mxGeometry y="260" width="160" height="26" as="geometry"/>
                </mxCell>
                <mxCell id="TdGKnOu7zhTbfg-XOS5--3" value="" style="line;strokeWidth=1;fillColor=none;align=left;verticalAlign=middle;spacingTop=-1;spacingLeft=3;spacingRight=3;rotatable=0;labelPosition=right;points=[];portConstraint=eastwest;strokeColor=inherit;" parent="TdGKnOu7zhTbfg-XOS5--1" vertex="1">
                    <mxGeometry y="286" width="160" height="8" as="geometry"/>
                </mxCell>
                <mxCell id="TdGKnOu7zhTbfg-XOS5--4" value="+ Display()" style="text;strokeColor=none;fillColor=none;align=left;verticalAlign=top;spacingLeft=4;spacingRight=4;overflow=hidden;rotatable=0;points=[[0,0.5],[1,0.5]];portConstraint=eastwest;whiteSpace=wrap;html=1;" parent="TdGKnOu7zhTbfg-XOS5--1" vertex="1">
                    <mxGeometry y="294" width="160" height="26" as="geometry"/>
                </mxCell>
                <mxCell id="8p43mTHeLQMd4w5aZVqD-3" value="- Calories(): int" style="text;strokeColor=none;fillColor=none;align=left;verticalAlign=top;spacingLeft=4;spacingRight=4;overflow=hidden;rotatable=0;points=[[0,0.5],[1,0.5]];portConstraint=eastwest;whiteSpace=wrap;html=1;" vertex="1" parent="TdGKnOu7zhTbfg-XOS5--1">
                    <mxGeometry y="320" width="160" height="26" as="geometry"/>
                </mxCell>
            </root>
        </mxGraphModel>
    </diagram>
</mxfile>